<svg height="1154" viewBox="0 0 4073 1154" width="4073" xmlns="http://www.w3.org/2000/svg" xmlns:xlink="http://www.w3.org/1999/xlink"><defs><path id="a" d="m1403.25 842.75c-37.00018 0-72.62483-5.874941-106.875-17.625s-61.1249-27.6249-80.625-47.625c-6.50003-5.500027-9.75-12.749955-9.75-21.75 0-5.500027 1.62498-10.24998 4.875-14.25s6.87498-6 10.875-6c5.00003 0 10.74997 2.499975 17.25 7.5 47.00023 39.000195 101.74969 58.5 164.25 58.5 45.50023 0 80.62488-9.124909 105.375-27.375s37.125-44.124833 37.125-77.625c0-19.500098-5.99994-35.24994-18-47.25s-27.24991-21.374966-45.75-28.125-43.24985-13.624965-74.25-20.625c-41.00021-9.000045-74.12487-18.249953-99.375-27.75s-46.62491-23.874904-64.125-43.125-26.25-45.124838-26.25-77.625c0-29.500148 7.87492-55.624886 23.625-78.375s37.87486-40.374937 66.375-52.875 61.24982-18.75 98.25-18.75c34.50017 0 66.99985 5.624944 97.5 16.875s55.7499 27.374895 75.75 48.375c6.50003 6.500032 9.75 13.74996 9.75 21.75 0 5.500027-1.62498 10.24998-4.875 14.25s-6.87498 6-10.875 6c-5.00003 0-10.74997-2.499975-17.25-7.5-27.00014-22.00011-51.37489-37.249957-73.125-45.75s-47.37485-12.75-76.875-12.75c-44.50022 0-79.24987 9.499905-104.25 28.5s-37.5 45.49983-37.5 79.5c0 20.500103 5.49995 37.124936 16.5 49.875s25.37491 22.874963 43.125 30.375 40.62486 14.749965 68.625 21.75l19.5 4.5c40.5002 10.00005 72.49988 19.249957 96 27.75s43.37492 21.624911 59.625 39.375 24.375 41.62485 24.375 71.625c0 28.500143-7.87492 53.874889-23.625 76.125s-37.99986 39.499939-66.75 51.75-61.62482 18.375-98.625 18.375zm442.5-40.5c14.00007 1.500008 21 7.999942 21 19.5 0 6.00003-2.24998 10.749982-6.75 14.25s-11.74995 5.000002-21.75 4.5l-21-1.5c-38.00019-2.500013-66.12491-14.124896-84.375-34.875s-27.375-52.374788-27.375-94.875v-199.5h-57c-6.00003 0-10.74998-1.624984-14.25-4.875s-5.25-7.624973-5.25-13.125 1.74998-9.999982 5.25-13.5 8.24997-5.25 14.25-5.25h57v-93c0-7.500037 1.99998-13.24998 6-17.25s9.49996-6 16.5-6 12.62498 1.99998 16.875 6 6.375 9.749963 6.375 17.25v93h90.75c6.50003 0 11.49998 1.749982 15 5.25s5.25 7.999973 5.25 13.5-1.74998 9.874984-5.25 13.125-8.49997 4.875-15 4.875h-90.75v201.75c0 31.000155 5.99994 53.124934 18 66.375s30.74987 20.87499 56.25 22.875zm231-338.25c44.00022 0 76.87489 11.499885 98.625 34.5s32.625 57.749767 32.625 104.25v213.75c0 7.000035-1.99998 12.624979-6 16.875s-9.49996 6.375-16.5 6.375-12.49998-2.124979-16.5-6.375-6-9.874965-6-16.875v-45c-10.50005 22.500113-25.7499 39.874939-45.75 52.125s-42.99987 18.375-69 18.375c-23.50012 0-44.9999-4.749953-64.5-14.25s-34.87494-22.749915-46.125-39.75-16.875-35.749898-16.875-56.25c0-27.000135 6.99993-47.999925 21-63s37.24984-25.749968 69.75-32.25 77.74971-9.75 135.75-9.75h15.75v-27.75c0-33.000165-6.74993-57.124924-20.25-72.375s-34.74986-22.875-63.75-22.875c-37.00019 0-72.24983 9.749902-105.75 29.25-1.50001 1.000005-5.37497 3.624979-11.625 7.875s-11.62498 6.375-16.125 6.375c-5.00003 0-9.12498-1.874981-12.375-5.625s-4.875-8.374973-4.875-13.875c0-11.000055 8.74991-21.749947 26.25-32.25 17.50009-10.00005 36.99989-17.749973 58.5-23.25s42.74989-8.25 63.75-8.25zm-24.75 338.25c32.50016 0 59.1249-10.99989 79.875-33s31.125-49.99983 31.125-84v-24.75h-14.25c-48.00024 0-84.74987 1.99998-110.25 6s-43.49995 10.874951-54 20.625-15.75 23.874908-15.75 42.375c0 21.000105 7.99992 38.374931 24 52.125s35.74988 20.625 59.25 20.625zm433.5 0c14.00007 1.500008 21 7.999942 21 19.5 0 6.00003-2.24998 10.749982-6.75 14.25s-11.74995 5.000002-21.75 4.5l-21-1.5c-38.00019-2.500013-66.12491-14.124896-84.375-34.875s-27.375-52.374788-27.375-94.875v-199.5h-57c-6.00003 0-10.74998-1.624984-14.25-4.875s-5.25-7.624973-5.25-13.125 1.74998-9.999982 5.25-13.5 8.24997-5.25 14.25-5.25h57v-93c0-7.500037 1.99998-13.24998 6-17.25s9.49996-6 16.5-6 12.62498 1.99998 16.875 6 6.375 9.749963 6.375 17.25v93h90.75c6.50003 0 11.49998 1.749982 15 5.25s5.25 7.999973 5.25 13.5-1.74998 9.874984-5.25 13.125-8.49997 4.875-15 4.875h-90.75v201.75c0 31.000155 5.99994 53.124934 18 66.375s30.74987 20.87499 56.25 22.875zm358.5-336.75c7.00004 0 12.62498 2.124979 16.875 6.375s6.375 9.874965 6.375 16.875v328.5c0 7.000035-2.12498 12.624979-6.375 16.875s-9.87496 6.375-16.875 6.375c-6.50003 0-11.74998-2.124979-15.75-6.375s-6-9.874965-6-16.875v-45.75c-11.50006 23.000115-27.87489 40.49994-49.125 52.5s-45.37487 18-72.375 18c-43.00022 0-75.37489-11.874881-97.125-35.625s-32.625-58.874767-32.625-105.375v-212.25c0-7.000035 2.12498-12.624979 6.375-16.875s9.87496-6.375 16.875-6.375 12.49998 2.124979 16.5 6.375 6 9.874965 6 16.875v209.25c0 35.500178 7.12493 61.624916 21.375 78.375s36.62485 25.125 67.125 25.125c35.00018 0 63.12489-11.124889 84.375-33.375s31.875-51.874815 31.875-88.875v-190.5c0-7.000035 1.99998-12.624979 6-16.875s9.49996-6.375 16.5-6.375zm261 376.5c-21.00011 0-41.6249-2.874971-61.875-8.625s-38.12492-13.62495-53.625-23.625c-9.50005-6.500033-16.12498-12.124976-19.875-16.875s-5.625-10.12497-5.625-16.125c0-5.000025 1.62498-9.249982 4.875-12.75s7.12498-5.25 11.625-5.25 12.24995 3.749963 23.25 11.25c14.50007 9.500047 29.37492 17.24997 44.625 23.25s34.37489 9 57.375 9c29.50015 0 52.49992-5.374946 69-16.125s24.75-26.1249 24.75-46.125c0-12.00006-2.99997-21.874961-9-29.625s-15.99993-14.499971-30-20.25-33.99987-11.374973-60-16.875c-44.50022-10.00005-76.12491-22.874921-94.875-38.625s-28.125-36.874867-28.125-63.375c0-32.00016 12.49987-57.874901 37.5-77.625s57.4998-29.625 97.5-29.625c19.5001 0 38.12491 2.499975 55.875 7.5s33.12493 12.249952 46.125 21.75c17.50009 12.00006 26.25 23.749942 26.25 35.25 0 5.000025-1.62498 9.374981-4.875 13.125s-7.12498 5.625-11.625 5.625c-5.00003 0-12.74995-3.99996-23.25-12-13.50007-9.500047-26.87493-17.124971-40.125-22.875s-30.1249-8.625-50.625-8.625c-26.00013 0-46.74992 5.874941-62.25 17.625s-23.25 27.6249-23.25 47.625c0 11.500058 2.62497 20.999963 7.875 28.5s14.24994 14.124971 27 19.875 31.12488 11.374973 55.125 16.875c34.50017 8.00004 60.99991 16.499955 79.5 25.5s31.74996 19.749937 39.75 32.25 12 28.499902 12 48c0 30.500153-12.87487 55.124906-38.625 73.875s-59.87479 28.125-102.375 28.125zm390.75-495.75c-28.50014 2.00001-49.99993 10.874921-64.5 26.625s-21.75 39.874838-21.75 72.375v27.75h90.75c6.50003 0 11.49998 1.749982 15 5.25s5.25 7.999973 5.25 13.5-1.74998 9.874984-5.25 13.125-8.49997 4.875-15 4.875h-90.75v307.5c0 7.000035-2.24998 12.624979-6.75 16.875s-9.99997 6.375-16.5 6.375c-7.00004 0-12.49998-1.99998-16.5-6s-6-9.749963-6-17.25v-307.5h-57c-6.00003 0-10.74998-1.624984-14.25-4.875s-5.25-7.624973-5.25-13.125 1.74998-9.999982 5.25-13.5 8.24997-5.25 14.25-5.25h57v-18.75c0-44.00022 10.62489-78.499875 31.875-103.5s52.1248-38.999985 92.625-42l19.5-1.5c19.5001-1.500008 29.25 4.249935 29.25 17.25 0 12.00006-7.24993 18.749992-21.75 20.25zm353.25 132.75c4.00002-9.000045 10.49996-13.5 19.5-13.5 5.50003 0 10.49998 1.99998 15 6s6.75 8.749973 6.75 14.25c0 3.500018-.74999 6.749985-2.25 9.75l-212.25 465.75c-4.00002 8.500043-10.49996 12.75-19.5 12.75-5.50003 0-10.37498-1.749982-14.625-5.25s-6.375-7.999973-6.375-13.5c0-3.000015.74999-5.999985 2.25-9l53.25-116.25-153.75-334.5c-1.50001-3.000015-2.25-5.999985-2.25-9 0-6.00003 2.62497-11.124979 7.875-15.375s10.87497-6.375 16.875-6.375c9.50005 0 15.99998 4.499955 19.5 13.5l135 303z"/><filter id="b" height="102.1%" width="100.5%" x="-.3%" y="-.7%"><feOffset dy="2" in="SourceAlpha" result="shadowOffsetOuter1"/><feGaussianBlur in="shadowOffsetOuter1" result="shadowBlurOuter1" stdDeviation="2"/><feColorMatrix in="shadowBlurOuter1" values="0 0 0 0 0.474509804   0 0 0 0 0.443137255   0 0 0 0 0.917647059  0 0 0 0.5 0"/></filter><rect id="c" height="783" rx="85" width="783"/><filter id="d" height="106.9%" width="106.9%" x="-3.4%" y="-2.7%"><feMorphology in="SourceAlpha" operator="dilate" radius="2" result="shadowSpreadOuter1"/><feOffset dy="6" in="shadowSpreadOuter1" result="shadowOffsetOuter1"/><feGaussianBlur in="shadowOffsetOuter1" result="shadowBlurOuter1" stdDeviation="6"/><feColorMatrix in="shadowBlurOuter1" values="0 0 0 0 0.101960784   0 0 0 0 0.17254902   0 0 0 0 0.356862745  0 0 0 0.5 0"/></filter><path id="e" d="m395.25 661.75c-37.000185 0-72.624829-5.874941-106.875-17.625s-61.124903-27.6249-80.625-47.625c-6.500032-5.500027-9.75-12.749955-9.75-21.75 0-5.500027 1.624984-10.24998 4.875-14.25s6.87498-6 10.875-6c5.000025 0 10.749968 2.499975 17.25 7.5 47.000235 39.000195 101.749687 58.5 164.25 58.5 45.500227 0 80.624876-9.124909 105.375-27.375s37.125-44.124833 37.125-77.625c0-19.500098-5.99994-35.24994-18-47.25s-27.249908-21.374966-45.75-28.125-43.249845-13.624965-74.25-20.625c-41.000205-9.000045-74.124874-18.249953-99.375-27.75s-46.624912-23.874904-64.125-43.125-26.25-45.124838-26.25-77.625c0-29.500148 7.874921-55.624886 23.625-78.375s37.874857-40.374937 66.375-52.875 61.249815-18.75 98.25-18.75c34.500172 0 66.999847 5.624944 97.5 16.875s55.7499 27.374895 75.75 48.375c6.500032 6.500032 9.75 13.74996 9.75 21.75 0 5.500027-1.624984 10.24998-4.875 14.25s-6.87498 6-10.875 6c-5.000025 0-10.749968-2.499975-17.25-7.5-27.000135-22.00011-51.374891-37.249957-73.125-45.75s-47.374853-12.75-76.875-12.75c-44.500223 0-79.249875 9.499905-104.25 28.5s-37.5 45.49983-37.5 79.5c0 20.500103 5.499945 37.124936 16.5 49.875s25.374911 22.874963 43.125 30.375 40.62486 14.749965 68.625 21.75l19.5 4.5c40.500203 10.00005 72.499883 19.249957 96 27.75s43.374919 21.624911 59.625 39.375 24.375 41.62485 24.375 71.625c0 28.500143-7.874921 53.874889-23.625 76.125s-37.999856 39.499939-66.75 51.75-61.624815 18.375-98.625 18.375z"/><filter id="f" height="102.6%" width="103.6%" x="-1.8%" y="-.9%"><feOffset dy="2" in="SourceAlpha" result="shadowOffsetOuter1"/><feGaussianBlur in="shadowOffsetOuter1" result="shadowBlurOuter1" stdDeviation="2"/><feColorMatrix in="shadowBlurOuter1" values="0 0 0 0 0.101960784   0 0 0 0 0.17254902   0 0 0 0 0.356862745  0 0 0 0.5 0"/></filter></defs><g fill="none" fill-rule="evenodd"><path d="m0 0h4073v1154h-4073z" fill="#fff"/><use fill="#000" filter="url(#b)" xlink:href="#a"/><use fill="#1a2c5b" xlink:href="#a"/><g transform="translate(182 181)"><g fill-rule="nonzero"><use fill="#000" filter="url(#d)" xlink:href="#c"/><use fill="#eff0f4" xlink:href="#c"/></g><use fill="#000" filter="url(#f)" xlink:href="#e"/><use fill="#1a2c5b" xlink:href="#e"/></g></g></svg>