<svg xmlns="http://www.w3.org/2000/svg" xmlns:xlink="http://www.w3.org/1999/xlink" width="3728" height="815" viewBox="0 0 3728 815">
  <defs>
    <path id="logo-b" d="M1237.25,671.75 C1200.24982,671.75 1164.62517,665.875059 1130.375,654.125 C1096.12483,642.374941 1069.2501,626.5001 1049.75,606.5 C1043.24997,600.999973 1040,593.750045 1040,584.75 C1040,579.249973 1041.62498,574.50002 1044.875,570.5 C1048.12502,566.49998 1051.74998,564.5 1055.75,564.5 C1060.75003,564.5 1066.49997,566.999975 1073,572 C1120.00023,611.000195 1174.74969,630.5 1237.25,630.5 C1282.75023,630.5 1317.87488,621.375091 1342.625,603.125 C1367.37512,584.874909 1379.75,559.000167 1379.75,525.5 C1379.75,505.999902 1373.75006,490.25006 1361.75,478.25 C1349.74994,466.24994 1334.50009,456.875034 1316,450.125 C1297.49991,443.374966 1272.75015,436.500035 1241.75,429.5 C1200.74979,420.499955 1167.62513,411.250047 1142.375,401.75 C1117.12487,392.249953 1095.75009,377.875096 1078.25,358.625 C1060.74991,339.374904 1052,313.500162 1052,281 C1052,251.499852 1059.87492,225.375114 1075.625,202.625 C1091.37508,179.874886 1113.49986,162.250063 1142,149.75 C1170.50014,137.249937 1203.24982,131 1240.25,131 C1274.75017,131 1307.24985,136.624944 1337.75,147.875 C1368.25015,159.125056 1393.4999,175.249895 1413.5,196.25 C1420.00003,202.750032 1423.25,209.99996 1423.25,218 C1423.25,223.500027 1421.62502,228.24998 1418.375,232.25 C1415.12498,236.25002 1411.50002,238.25 1407.5,238.25 C1402.49997,238.25 1396.75003,235.750025 1390.25,230.75 C1363.24986,208.74989 1338.87511,193.500043 1317.125,185 C1295.37489,176.499957 1269.75015,172.25 1240.25,172.25 C1195.74978,172.25 1161.00013,181.749905 1136,200.75 C1110.99987,219.750095 1098.5,246.24983 1098.5,280.25 C1098.5,300.750103 1103.99995,317.374936 1115,330.125 C1126.00005,342.875064 1140.37491,352.999963 1158.125,360.5 C1175.87509,368.000037 1198.74986,375.249965 1226.75,382.25 L1246.25,386.75 C1286.7502,396.75005 1318.74988,405.999957 1342.25,414.5 C1365.75012,423.000043 1385.62492,436.124911 1401.875,453.875 C1418.12508,471.625089 1426.25,495.49985 1426.25,525.5 C1426.25,554.000143 1418.37508,579.374889 1402.625,601.625 C1386.87492,623.875111 1364.62514,641.124939 1335.875,653.375 C1307.12486,665.625061 1274.25018,671.75 1237.25,671.75 Z M1679.75,631.25 C1693.75007,632.750008 1700.75,639.249942 1700.75,650.75 C1700.75,656.75003 1698.50002,661.499982 1694,665 C1689.49998,668.500018 1682.25005,670.000002 1672.25,669.5 L1651.25,668 C1613.24981,665.499987 1585.12509,653.875104 1566.875,633.125 C1548.62491,612.374896 1539.5,580.750212 1539.5,538.25 L1539.5,338.75 L1482.5,338.75 C1476.49997,338.75 1471.75002,337.125016 1468.25,333.875 C1464.74998,330.624984 1463,326.250027 1463,320.75 C1463,315.249973 1464.74998,310.750018 1468.25,307.25 C1471.75002,303.749982 1476.49997,302 1482.5,302 L1539.5,302 L1539.5,209 C1539.5,201.499963 1541.49998,195.75002 1545.5,191.75 C1549.50002,187.74998 1554.99996,185.75 1562,185.75 C1569.00004,185.75 1574.62498,187.74998 1578.875,191.75 C1583.12502,195.75002 1585.25,201.499963 1585.25,209 L1585.25,302 L1676,302 C1682.50003,302 1687.49998,303.749982 1691,307.25 C1694.50002,310.750018 1696.25,315.249973 1696.25,320.75 C1696.25,326.250027 1694.50002,330.624984 1691,333.875 C1687.49998,337.125016 1682.50003,338.75 1676,338.75 L1585.25,338.75 L1585.25,540.5 C1585.25,571.500155 1591.24994,593.624934 1603.25,606.875 C1615.25006,620.125066 1633.99987,627.74999 1659.5,629.75 L1679.75,631.25 Z M1910.75,293 C1954.75022,293 1987.62489,304.499885 2009.375,327.5 C2031.12511,350.500115 2042,385.249767 2042,431.75 L2042,645.5 C2042,652.500035 2040.00002,658.124979 2036,662.375 C2031.99998,666.625021 2026.50004,668.75 2019.5,668.75 C2012.49996,668.75 2007.00002,666.625021 2003,662.375 C1998.99998,658.124979 1997,652.500035 1997,645.5 L1997,600.5 C1986.49995,623.000113 1971.2501,640.374939 1951.25,652.625 C1931.2499,664.875061 1908.25013,671 1882.25,671 C1858.74988,671 1837.2501,666.250047 1817.75,656.75 C1798.2499,647.249953 1782.87506,634.000085 1771.625,617 C1760.37494,599.999915 1754.75,581.250102 1754.75,560.75 C1754.75,533.749865 1761.74993,512.750075 1775.75,497.75 C1789.75007,482.749925 1812.99984,472.000032 1845.5,465.5 C1878.00016,458.999968 1923.24971,455.75 1981.25,455.75 L1997,455.75 L1997,428 C1997,394.999835 1990.25007,370.875076 1976.75,355.625 C1963.24993,340.374924 1942.00014,332.75 1913,332.75 C1875.99981,332.75 1840.75017,342.499902 1807.25,362 C1805.74999,363.000005 1801.87503,365.624979 1795.625,369.875 C1789.37497,374.125021 1784.00002,376.25 1779.5,376.25 C1774.49997,376.25 1770.37502,374.375019 1767.125,370.625 C1763.87498,366.874981 1762.25,362.250027 1762.25,356.75 C1762.25,345.749945 1770.99991,335.000053 1788.5,324.5 C1806.00009,314.49995 1825.49989,306.750027 1847,301.25 C1868.50011,295.749973 1889.74989,293 1910.75,293 Z M1886,631.25 C1918.50016,631.25 1945.1249,620.25011 1965.875,598.25 C1986.6251,576.24989 1997,548.25017 1997,514.25 L1997,489.5 L1982.75,489.5 C1934.74976,489.5 1898.00013,491.49998 1872.5,495.5 C1846.99987,499.50002 1829.00005,506.374951 1818.5,516.125 C1807.99995,525.875049 1802.75,539.999908 1802.75,558.5 C1802.75,579.500105 1810.74992,596.874931 1826.75,610.625 C1842.75008,624.375069 1862.49988,631.25 1886,631.25 Z M2319.5,631.25 C2333.50007,632.750008 2340.5,639.249942 2340.5,650.75 C2340.5,656.75003 2338.25002,661.499982 2333.75,665 C2329.24998,668.500018 2322.00005,670.000002 2312,669.5 L2291,668 C2252.99981,665.499987 2224.87509,653.875104 2206.625,633.125 C2188.37491,612.374896 2179.25,580.750212 2179.25,538.25 L2179.25,338.75 L2122.25,338.75 C2116.24997,338.75 2111.50002,337.125016 2108,333.875 C2104.49998,330.624984 2102.75,326.250027 2102.75,320.75 C2102.75,315.249973 2104.49998,310.750018 2108,307.25 C2111.50002,303.749982 2116.24997,302 2122.25,302 L2179.25,302 L2179.25,209 C2179.25,201.499963 2181.24998,195.75002 2185.25,191.75 C2189.25002,187.74998 2194.74996,185.75 2201.75,185.75 C2208.75004,185.75 2214.37498,187.74998 2218.625,191.75 C2222.87502,195.75002 2225,201.499963 2225,209 L2225,302 L2315.75,302 C2322.25003,302 2327.24998,303.749982 2330.75,307.25 C2334.25002,310.750018 2336,315.249973 2336,320.75 C2336,326.250027 2334.25002,330.624984 2330.75,333.875 C2327.24998,337.125016 2322.25003,338.75 2315.75,338.75 L2225,338.75 L2225,540.5 C2225,571.500155 2230.99994,593.624934 2243,606.875 C2255.00006,620.125066 2273.74987,627.74999 2299.25,629.75 L2319.5,631.25 Z M2678,294.5 C2685.00004,294.5 2690.62498,296.624979 2694.875,300.875 C2699.12502,305.125021 2701.25,310.749965 2701.25,317.75 L2701.25,646.25 C2701.25,653.250035 2699.12502,658.874979 2694.875,663.125 C2690.62498,667.375021 2685.00004,669.5 2678,669.5 C2671.49997,669.5 2666.25002,667.375021 2662.25,663.125 C2658.24998,658.874979 2656.25,653.250035 2656.25,646.25 L2656.25,600.5 C2644.74994,623.500115 2628.37511,640.99994 2607.125,653 C2585.87489,665.00006 2561.75013,671 2534.75,671 C2491.74978,671 2459.37511,659.125119 2437.625,635.375 C2415.87489,611.624881 2405,576.500233 2405,530 L2405,317.75 C2405,310.749965 2407.12498,305.125021 2411.375,300.875 C2415.62502,296.624979 2421.24996,294.5 2428.25,294.5 C2435.25004,294.5 2440.74998,296.624979 2444.75,300.875 C2448.75002,305.125021 2450.75,310.749965 2450.75,317.75 L2450.75,527 C2450.75,562.500178 2457.87493,588.624916 2472.125,605.375 C2486.37507,622.125084 2508.74985,630.5 2539.25,630.5 C2574.25018,630.5 2602.37489,619.375111 2623.625,597.125 C2644.87511,574.874889 2655.5,545.250185 2655.5,508.25 L2655.5,317.75 C2655.5,310.749965 2657.49998,305.125021 2661.5,300.875 C2665.50002,296.624979 2670.99996,294.5 2678,294.5 Z M2939,671 C2917.99989,671 2897.3751,668.125029 2877.125,662.375 C2856.8749,656.624971 2839.00008,648.75005 2823.5,638.75 C2813.99995,632.249967 2807.37502,626.625024 2803.625,621.875 C2799.87498,617.124976 2798,611.75003 2798,605.75 C2798,600.749975 2799.62498,596.500018 2802.875,593 C2806.12502,589.499982 2809.99998,587.75 2814.5,587.75 C2819.00002,587.75 2826.74995,591.499963 2837.75,599 C2852.25007,608.500047 2867.12492,616.24997 2882.375,622.25 C2897.62508,628.25003 2916.74989,631.25 2939.75,631.25 C2969.25015,631.25 2992.24992,625.875054 3008.75,615.125 C3025.25008,604.374946 3033.5,589.0001 3033.5,569 C3033.5,556.99994 3030.50003,547.125039 3024.5,539.375 C3018.49997,531.624961 3008.50007,524.875029 2994.5,519.125 C2980.49993,513.374971 2960.50013,507.750027 2934.5,502.25 C2889.99978,492.24995 2858.37509,479.375079 2839.625,463.625 C2820.87491,447.874921 2811.5,426.750133 2811.5,400.25 C2811.5,368.24984 2823.99987,342.375099 2849,322.625 C2874.00013,302.874901 2906.4998,293 2946.5,293 C2966.0001,293 2984.62491,295.499975 3002.375,300.5 C3020.12509,305.500025 3035.49993,312.749952 3048.5,322.25 C3066.00009,334.25006 3074.75,345.999942 3074.75,357.5 C3074.75,362.500025 3073.12502,366.874981 3069.875,370.625 C3066.62498,374.375019 3062.75002,376.25 3058.25,376.25 C3053.24997,376.25 3045.50005,372.25004 3035,364.25 C3021.49993,354.749953 3008.12507,347.125029 2994.875,341.375 C2981.62493,335.624971 2964.7501,332.75 2944.25,332.75 C2918.24987,332.75 2897.50008,338.624941 2882,350.375 C2866.49992,362.125059 2858.75,377.9999 2858.75,398 C2858.75,409.500058 2861.37497,418.999963 2866.625,426.5 C2871.87503,434.000037 2880.87494,440.624971 2893.625,446.375 C2906.37506,452.125029 2924.74988,457.749973 2948.75,463.25 C2983.25017,471.25004 3009.74991,479.749955 3028.25,488.75 C3046.75009,497.750045 3059.99996,508.499937 3068,521 C3076.00004,533.500063 3080,549.499902 3080,569 C3080,599.500153 3067.12513,624.124906 3041.375,642.875 C3015.62487,661.625094 2981.50021,671 2939,671 Z M3329.75,175.25 C3301.24986,177.25001 3279.75007,186.124921 3265.25,201.875 C3250.74993,217.625079 3243.5,241.749838 3243.5,274.25 L3243.5,302 L3334.25,302 C3340.75003,302 3345.74998,303.749982 3349.25,307.25 C3352.75002,310.750018 3354.5,315.249973 3354.5,320.75 C3354.5,326.250027 3352.75002,330.624984 3349.25,333.875 C3345.74998,337.125016 3340.75003,338.75 3334.25,338.75 L3243.5,338.75 L3243.5,646.25 C3243.5,653.250035 3241.25002,658.874979 3236.75,663.125 C3232.24998,667.375021 3226.75003,669.5 3220.25,669.5 C3213.24996,669.5 3207.75002,667.50002 3203.75,663.5 C3199.74998,659.49998 3197.75,653.750037 3197.75,646.25 L3197.75,338.75 L3140.75,338.75 C3134.74997,338.75 3130.00002,337.125016 3126.5,333.875 C3122.99998,330.624984 3121.25,326.250027 3121.25,320.75 C3121.25,315.249973 3122.99998,310.750018 3126.5,307.25 C3130.00002,303.749982 3134.74997,302 3140.75,302 L3197.75,302 L3197.75,283.25 C3197.75,239.24978 3208.37489,204.750125 3229.625,179.75 C3250.87511,154.749875 3281.7498,140.750015 3322.25,137.75 L3341.75,136.25 C3361.2501,134.749992 3371,140.499935 3371,153.5 C3371,165.50006 3363.75007,172.249992 3349.25,173.75 L3329.75,175.25 Z M3683,308 C3687.00002,298.999955 3693.49996,294.5 3702.5,294.5 C3708.00003,294.5 3712.99998,296.49998 3717.5,300.5 C3722.00002,304.50002 3724.25,309.249973 3724.25,314.75 C3724.25,318.250018 3723.50001,321.499985 3722,324.5 L3509.75,790.25 C3505.74998,798.750043 3499.25004,803 3490.25,803 C3484.74997,803 3479.87502,801.250018 3475.625,797.75 C3471.37498,794.249982 3469.25,789.750027 3469.25,784.25 C3469.25,781.249985 3469.99999,778.250015 3471.5,775.25 L3524.75,659 L3371,324.5 C3369.49999,321.499985 3368.75,318.500015 3368.75,315.5 C3368.75,309.49997 3371.37497,304.375021 3376.625,300.125 C3381.87503,295.874979 3387.49997,293.75 3393.5,293.75 C3403.00005,293.75 3409.49998,298.249955 3413,307.25 L3548,610.25 L3683,308 Z"/>
    <filter id="logo-a" width="100.5%" height="102.1%" x="-.3%" y="-.7%" filterUnits="objectBoundingBox">
      <feOffset dy="2" in="SourceAlpha" result="shadowOffsetOuter1"/>
      <feGaussianBlur in="shadowOffsetOuter1" result="shadowBlurOuter1" stdDeviation="2"/>
      <feColorMatrix in="shadowBlurOuter1" values="0 0 0 0 0.474509804   0 0 0 0 0.443137255   0 0 0 0 0.917647059  0 0 0 0.5 0"/>
    </filter>
    <rect id="logo-d" width="783" height="783" rx="85"/>
    <filter id="logo-c" width="106.9%" height="106.9%" x="-3.4%" y="-2.7%" filterUnits="objectBoundingBox">
      <feMorphology in="SourceAlpha" operator="dilate" radius="2" result="shadowSpreadOuter1"/>
      <feOffset dy="6" in="shadowSpreadOuter1" result="shadowOffsetOuter1"/>
      <feGaussianBlur in="shadowOffsetOuter1" result="shadowBlurOuter1" stdDeviation="6"/>
      <feColorMatrix in="shadowBlurOuter1" values="0 0 0 0 0.101960784   0 0 0 0 0.17254902   0 0 0 0 0.356862745  0 0 0 0.5 0"/>
    </filter>
    <path id="logo-f" d="M395.25,661.75 C358.249815,661.75 322.625171,655.875059 288.375,644.125 C254.124829,632.374941 227.250097,616.5001 207.75,596.5 C201.249968,590.999973 198,583.750045 198,574.75 C198,569.249973 199.624984,564.50002 202.875,560.5 C206.125016,556.49998 209.74998,554.5 213.75,554.5 C218.750025,554.5 224.499968,556.999975 231,562 C278.000235,601.000195 332.749687,620.5 395.25,620.5 C440.750227,620.5 475.874876,611.375091 500.625,593.125 C525.375124,574.874909 537.75,549.000167 537.75,515.5 C537.75,495.999902 531.75006,480.25006 519.75,468.25 C507.74994,456.24994 492.500092,446.875034 474,440.125 C455.499908,433.374966 430.750155,426.500035 399.75,419.5 C358.749795,410.499955 325.625126,401.250047 300.375,391.75 C275.124874,382.249953 253.750088,367.875096 236.25,348.625 C218.749912,329.374904 210,303.500162 210,271 C210,241.499852 217.874921,215.375114 233.625,192.625 C249.375079,169.874886 271.499857,152.250063 300,139.75 C328.500143,127.249937 361.249815,121 398.25,121 C432.750172,121 465.249847,126.624944 495.75,137.875 C526.250153,149.125056 551.4999,165.249895 571.5,186.25 C578.000032,192.750032 581.25,199.99996 581.25,208 C581.25,213.500027 579.625016,218.24998 576.375,222.25 C573.124984,226.25002 569.50002,228.25 565.5,228.25 C560.499975,228.25 554.750032,225.750025 548.25,220.75 C521.249865,198.74989 496.875109,183.500043 475.125,175 C453.374891,166.499957 427.750147,162.25 398.25,162.25 C353.749777,162.25 319.000125,171.749905 294,190.75 C268.999875,209.750095 256.5,236.24983 256.5,270.25 C256.5,290.750103 261.999945,307.374936 273,320.125 C284.000055,332.875064 298.374911,342.999963 316.125,350.5 C333.875089,358.000037 356.74986,365.249965 384.75,372.25 L404.25,376.75 C444.750203,386.75005 476.749883,395.999957 500.25,404.5 C523.750117,413.000043 543.624919,426.124911 559.875,443.875 C576.125081,461.625089 584.25,485.49985 584.25,515.5 C584.25,544.000143 576.375079,569.374889 560.625,591.625 C544.874921,613.875111 522.625144,631.124939 493.875,643.375 C465.124856,655.625061 432.250185,661.75 395.25,661.75 Z"/>
    <filter id="logo-e" width="103.6%" height="102.6%" x="-1.8%" y="-.9%" filterUnits="objectBoundingBox">
      <feOffset dy="2" in="SourceAlpha" result="shadowOffsetOuter1"/>
      <feGaussianBlur in="shadowOffsetOuter1" result="shadowBlurOuter1" stdDeviation="2"/>
      <feColorMatrix in="shadowBlurOuter1" values="0 0 0 0 0.101960784   0 0 0 0 0.17254902   0 0 0 0 0.356862745  0 0 0 0.5 0"/>
    </filter>
  </defs>
  <g fill="none" fill-rule="evenodd">
    <use fill="#000" filter="url(#logo-a)" xlink:href="#logo-b"/>
    <use fill="#1A2C5B" xlink:href="#logo-b"/>
    <g transform="translate(16 10)">
      <g fill-rule="nonzero">
        <use fill="#000" filter="url(#logo-c)" xlink:href="#logo-d"/>
        <use fill="#EFF0F4" xlink:href="#logo-d"/>
      </g>
      <use fill="#000" filter="url(#logo-e)" xlink:href="#logo-f"/>
      <use fill="#1A2C5B" xlink:href="#logo-f"/>
    </g>
  </g>
</svg>
