<svg xmlns="http://www.w3.org/2000/svg" xmlns:xlink="http://www.w3.org/1999/xlink" width="3728" height="844" viewBox="0 0 3728 844"><defs><path id="b" d="M1237.25 700.75c-37 0-72.625-5.875-106.875-17.625S1069.25 655.5 1049.75 635.5c-6.5-5.5-9.75-12.75-9.75-21.75 0-5.5 1.625-10.25 4.875-14.25s6.875-6 10.875-6c5 0 10.75 2.5 17.25 7.5 47 39 101.75 58.5 164.25 58.5 45.5 0 80.625-9.125 105.375-27.375S1379.75 588 1379.75 554.5c0-19.5-6-35.25-18-47.25s-27.25-21.375-45.75-28.125-43.25-13.625-74.25-20.625c-41-9-74.125-18.25-99.375-27.75s-46.625-23.875-64.125-43.125S1052 342.5 1052 310c0-29.5 7.875-55.625 23.625-78.375S1113.5 191.25 1142 178.75s61.25-18.75 98.25-18.75c34.5 0 67 5.625 97.5 16.875s55.75 27.375 75.75 48.375c6.5 6.5 9.75 13.75 9.75 21.75 0 5.5-1.625 10.25-4.875 14.25s-6.875 6-10.875 6c-5 0-10.75-2.5-17.25-7.5-27-22-51.375-37.25-73.125-45.75s-47.375-12.75-76.875-12.75c-44.5 0-79.25 9.5-104.25 28.5s-37.5 45.5-37.5 79.5c0 20.5 5.5 37.125 16.5 49.875s25.375 22.875 43.125 30.375 40.625 14.75 68.625 21.75l19.5 4.5c40.5 10 72.5 19.25 96 27.75s43.375 21.625 59.625 39.375 24.375 41.625 24.375 71.625c0 28.5-7.875 53.875-23.625 76.125s-38 39.5-66.75 51.75-61.625 18.375-98.625 18.375zm442.5-40.5c14 1.5 21 8 21 19.5 0 6-2.25 10.75-6.75 14.25s-11.75 5-21.75 4.5l-21-1.5c-38-2.5-66.125-14.125-84.375-34.875S1539.5 609.75 1539.5 567.25v-199.5h-57c-6 0-10.75-1.625-14.25-4.875s-5.25-7.625-5.25-13.125 1.75-10 5.25-13.5 8.25-5.25 14.25-5.25h57v-93c0-7.5 2-13.25 6-17.25s9.5-6 16.5-6 12.625 2 16.875 6 6.375 9.75 6.375 17.25v93H1676c6.5 0 11.5 1.75 15 5.25s5.25 8 5.25 13.5-1.75 9.875-5.25 13.125-8.5 4.875-15 4.875h-90.75V569.5c0 31 6 53.125 18 66.375s30.75 20.875 56.25 22.875l20.25 1.5zm231-338.25c44 0 76.875 11.5 98.625 34.5S2042 414.25 2042 460.75V674.5c0 7-2 12.625-6 16.875s-9.5 6.375-16.5 6.375-12.5-2.125-16.5-6.375-6-9.875-6-16.875v-45c-10.5 22.5-25.75 39.875-45.75 52.125s-43 18.375-69 18.375c-23.5 0-45-4.75-64.5-14.25S1782.875 663 1771.625 646s-16.875-35.75-16.875-56.25c0-27 7-48 21-63S1813 501 1845.5 494.5s77.75-9.75 135.75-9.75H1997V457c0-33-6.75-57.125-20.25-72.375S1942 361.75 1913 361.75c-37 0-72.25 9.75-105.75 29.25-1.5 1-5.375 3.625-11.625 7.875S1784 405.25 1779.5 405.25c-5 0-9.125-1.875-12.375-5.625s-4.875-8.375-4.875-13.875c0-11 8.75-21.75 26.25-32.25 17.5-10 37-17.75 58.5-23.25s42.75-8.25 63.75-8.25zM1886 660.25c32.5 0 59.125-11 79.875-33s31.125-50 31.125-84V518.5h-14.25c-48 0-84.75 2-110.25 6s-43.5 10.875-54 20.625-15.75 23.875-15.75 42.375c0 21 8 38.375 24 52.125s35.75 20.625 59.25 20.625zm433.5 0c14 1.5 21 8 21 19.5 0 6-2.25 10.75-6.75 14.25s-11.75 5-21.75 4.5l-21-1.5c-38-2.5-66.125-14.125-84.375-34.875s-27.375-52.375-27.375-94.875v-199.5h-57c-6 0-10.75-1.625-14.25-4.875s-5.25-7.625-5.25-13.125 1.75-10 5.25-13.5 8.25-5.25 14.25-5.25h57v-93c0-7.5 2-13.25 6-17.25s9.5-6 16.5-6 12.625 2 16.875 6S2225 230.5 2225 238v93h90.75c6.5 0 11.5 1.75 15 5.25s5.25 8 5.25 13.5-1.75 9.875-5.25 13.125-8.5 4.875-15 4.875H2225V569.5c0 31 6 53.125 18 66.375s30.75 20.875 56.25 22.875l20.25 1.5zM2678 323.5c7 0 12.625 2.125 16.875 6.375s6.375 9.875 6.375 16.875v328.5c0 7-2.125 12.625-6.375 16.875S2685 698.5 2678 698.5c-6.5 0-11.75-2.125-15.75-6.375s-6-9.875-6-16.875V629.5c-11.5 23-27.875 40.5-49.125 52.5s-45.375 18-72.375 18c-43 0-75.375-11.875-97.125-35.625S2405 605.5 2405 559V346.75c0-7 2.125-12.625 6.375-16.875s9.875-6.375 16.875-6.375 12.5 2.125 16.5 6.375 6 9.875 6 16.875V556c0 35.5 7.125 61.625 21.375 78.375s36.625 25.125 67.125 25.125c35 0 63.125-11.125 84.375-33.375s31.875-51.875 31.875-88.875v-190.5c0-7 2-12.625 6-16.875s9.5-6.375 16.5-6.375zM2939 700c-21 0-41.625-2.875-61.875-8.625S2839 677.75 2823.5 667.75c-9.5-6.5-16.125-12.125-19.875-16.875S2798 640.75 2798 634.75c0-5 1.625-9.25 4.875-12.75s7.125-5.25 11.625-5.25 12.25 3.75 23.25 11.25c14.5 9.5 29.375 17.25 44.625 23.25s34.375 9 57.375 9c29.5 0 52.5-5.375 69-16.125S3033.5 618 3033.5 598c0-12-3-21.875-9-29.625s-16-14.5-30-20.25-34-11.375-60-16.875c-44.5-10-76.125-22.875-94.875-38.625S2811.5 455.75 2811.5 429.25c0-32 12.5-57.875 37.5-77.625S2906.5 322 2946.5 322c19.5 0 38.125 2.5 55.875 7.5s33.125 12.25 46.125 21.75c17.5 12 26.25 23.75 26.25 35.25 0 5-1.625 9.375-4.875 13.125s-7.125 5.625-11.625 5.625c-5 0-12.75-4-23.25-12-13.5-9.5-26.875-17.125-40.125-22.875s-30.125-8.625-50.625-8.625c-26 0-46.75 5.875-62.25 17.625S2858.75 407 2858.75 427c0 11.5 2.625 21 7.875 28.5s14.25 14.125 27 19.875 31.125 11.375 55.125 16.875c34.5 8 61 16.5 79.5 25.5S3060 537.5 3068 550s12 28.5 12 48c0 30.5-12.875 55.125-38.625 73.875S2981.5 700 2939 700zm390.75-495.75c-28.5 2-50 10.875-64.5 26.625s-21.75 39.875-21.75 72.375V331h90.75c6.5 0 11.5 1.75 15 5.25s5.25 8 5.25 13.5-1.75 9.875-5.25 13.125-8.5 4.875-15 4.875h-90.75v307.5c0 7-2.25 12.625-6.75 16.875s-10 6.375-16.5 6.375c-7 0-12.5-2-16.5-6s-6-9.75-6-17.25v-307.5h-57c-6 0-10.75-1.625-14.25-4.875s-5.25-7.625-5.25-13.125 1.75-10 5.25-13.5 8.25-5.25 14.25-5.25h57v-18.75c0-44 10.625-78.5 31.875-103.5s52.125-39 92.625-42l19.5-1.5c19.5-1.5 29.25 4.25 29.25 17.25 0 12-7.25 18.75-21.75 20.25l-19.5 1.5zM3683 337c4-9 10.5-13.5 19.5-13.5 5.5 0 10.5 2 15 6s6.75 8.75 6.75 14.25c0 3.5-.75 6.75-2.25 9.75l-212.25 465.75c-4 8.5-10.5 12.75-19.5 12.75-5.5 0-10.375-1.75-14.625-5.25s-6.375-8-6.375-13.5c0-3 .75-6 2.25-9L3524.75 688 3371 353.5c-1.5-3-2.25-6-2.25-9 0-6 2.625-11.125 7.875-15.375s10.875-6.375 16.875-6.375c9.5 0 16 4.5 19.5 13.5l135 303L3683 337z"/><filter id="a" width="100.5%" height="102.1%" x="-.3%" y="-.7%" filterUnits="objectBoundingBox"><feOffset dy="2" in="SourceAlpha" result="shadowOffsetOuter1"/><feGaussianBlur in="shadowOffsetOuter1" result="shadowBlurOuter1" stdDeviation="2"/><feColorMatrix in="shadowBlurOuter1" values="0 0 0 0 0.474509804 0 0 0 0 0.443137255 0 0 0 0 0.917647059 0 0 0 0.5 0"/></filter><rect id="d" width="783" height="783" rx="85"/><filter id="c" width="106.9%" height="106.9%" x="-3.4%" y="-2.7%" filterUnits="objectBoundingBox"><feMorphology in="SourceAlpha" operator="dilate" radius="2" result="shadowSpreadOuter1"/><feOffset dy="6" in="shadowSpreadOuter1" result="shadowOffsetOuter1"/><feGaussianBlur in="shadowOffsetOuter1" result="shadowBlurOuter1" stdDeviation="6"/><feColorMatrix in="shadowBlurOuter1" values="0 0 0 0 0.101960784 0 0 0 0 0.17254902 0 0 0 0 0.356862745 0 0 0 0.5 0"/></filter><path id="f" d="M395.25 661.75c-37 0-72.625-5.875-106.875-17.625S227.25 616.5 207.75 596.5c-6.5-5.5-9.75-12.75-9.75-21.75 0-5.5 1.625-10.25 4.875-14.25s6.875-6 10.875-6c5 0 10.75 2.5 17.25 7.5 47 39 101.75 58.5 164.25 58.5 45.5 0 80.625-9.125 105.375-27.375S537.75 549 537.75 515.5c0-19.5-6-35.25-18-47.25S492.5 446.875 474 440.125 430.75 426.5 399.75 419.5c-41-9-74.125-18.25-99.375-27.75s-46.625-23.875-64.125-43.125S210 303.5 210 271c0-29.5 7.875-55.625 23.625-78.375S271.5 152.25 300 139.75 361.25 121 398.25 121c34.5 0 67 5.625 97.5 16.875s55.75 27.375 75.75 48.375c6.5 6.5 9.75 13.75 9.75 21.75 0 5.5-1.625 10.25-4.875 14.25s-6.875 6-10.875 6c-5 0-10.75-2.5-17.25-7.5-27-22-51.375-37.25-73.125-45.75s-47.375-12.75-76.875-12.75c-44.5 0-79.25 9.5-104.25 28.5s-37.5 45.5-37.5 79.5c0 20.5 5.5 37.125 16.5 49.875S298.375 343 316.125 350.5s40.625 14.75 68.625 21.75l19.5 4.5c40.5 10 72.5 19.25 96 27.75s43.375 21.625 59.625 39.375S584.25 485.5 584.25 515.5c0 28.5-7.875 53.875-23.625 76.125s-38 39.5-66.75 51.75-61.625 18.375-98.625 18.375z"/><filter id="e" width="103.6%" height="102.6%" x="-1.8%" y="-.9%" filterUnits="objectBoundingBox"><feOffset dy="2" in="SourceAlpha" result="shadowOffsetOuter1"/><feGaussianBlur in="shadowOffsetOuter1" result="shadowBlurOuter1" stdDeviation="2"/><feColorMatrix in="shadowBlurOuter1" values="0 0 0 0 0.101960784 0 0 0 0 0.17254902 0 0 0 0 0.356862745 0 0 0 0.5 0"/></filter><path id="h" d="M24.12 229.38c-3.28 0-5.72-.86-7.32-2.58-1.6-1.72-2.28-4.22-2.04-7.5l5.16-64.32c.32-3.28 1.42-5.8 3.3-7.56 1.88-1.76 4.46-2.64 7.74-2.64h24.12c8.48 0 15.86 1.62 22.14 4.86 6.28 3.24 11.14 7.84 14.58 13.8 3.44 5.96 5.16 12.98 5.16 21.06 0 9.44-1.88 17.52-5.64 24.24-3.76 6.72-9.18 11.84-16.26 15.36-7.08 3.52-15.58 5.28-25.5 5.28H24.12zm23.4-17.76c9.36 0 16.28-2.18 20.76-6.54 4.48-4.36 6.72-11.26 6.72-20.7 0-7.12-1.96-12.54-5.88-16.26-3.92-3.72-9.6-5.58-17.04-5.58h-10.8l-3.84 49.08h10.08zm86.16-49.8l-1.32 16.08h27.84c3.2 0 5.62.68 7.26 2.04 1.64 1.36 2.46 3.28 2.46 5.76 0 3.12-.9 5.42-2.7 6.9-1.8 1.48-4.58 2.22-8.34 2.22h-27.84l-1.44 17.52h30.36c3.2 0 5.62.72 7.26 2.16 1.64 1.44 2.46 3.4 2.46 5.88 0 6-3.72 9-11.16 9H117c-3.28 0-5.74-.88-7.38-2.64-1.64-1.76-2.3-4.28-1.98-7.56l5.04-64.2c.32-3.28 1.44-5.8 3.36-7.56 1.92-1.76 4.48-2.64 7.68-2.64h41.64c3.2 0 5.62.7 7.26 2.1 1.64 1.4 2.46 3.3 2.46 5.7 0 6.16-3.72 9.24-11.16 9.24h-30.24zm126.48-17.64c3.04 0 5.46 1.02 7.26 3.06 1.8 2.04 2.54 4.7 2.22 7.98l-5.16 64.92c-.32 3.04-1.38 5.46-3.18 7.26-1.8 1.8-4.18 2.7-7.14 2.7-2.8 0-5.06-.9-6.78-2.7-1.72-1.8-2.42-4.18-2.1-7.14l2.76-35.28-15.48 25.32c-1.6 2.56-3.2 4.4-4.8 5.52-1.6 1.12-3.44 1.68-5.52 1.68-2.08 0-3.84-.56-5.28-1.68-1.44-1.12-2.76-2.96-3.96-5.52l-11.64-24-2.76 33.84c-.16 2.96-1.2 5.36-3.12 7.2-1.92 1.84-4.36 2.76-7.32 2.76-2.8 0-5.02-.88-6.66-2.64-1.64-1.76-2.34-4.16-2.1-7.2l5.16-65.28c.32-3.2 1.52-5.8 3.6-7.8s4.64-3 7.68-3c4.4 0 7.68 2.4 9.84 7.2l18.36 40.68 25.2-40.56c1.52-2.4 3.2-4.22 5.04-5.46 1.84-1.24 3.8-1.86 5.88-1.86zm62.28 86.4c-8.48 0-15.88-1.66-22.2-4.98-6.32-3.32-11.18-8.04-14.58-14.16-3.4-6.12-5.1-13.38-5.1-21.78 0-9.12 1.76-17.18 5.28-24.18 3.52-7 8.52-12.4 15-16.2 6.48-3.8 14-5.7 22.56-5.7 8.48 0 15.88 1.66 22.2 4.98 6.32 3.32 11.18 8.06 14.58 14.22 3.4 6.16 5.1 13.4 5.1 21.72 0 9.12-1.78 17.16-5.34 24.12-3.56 6.96-8.58 12.36-15.06 16.2s-13.96 5.76-22.44 5.76zm-.24-17.04c6.48 0 11.6-2.56 15.36-7.68 3.76-5.12 5.64-12.24 5.64-21.36 0-7.6-1.72-13.48-5.16-17.64-3.44-4.16-8.24-6.24-14.4-6.24-6.56 0-11.72 2.58-15.48 7.74s-5.64 12.26-5.64 21.3c0 7.68 1.7 13.58 5.1 17.7 3.4 4.12 8.26 6.18 14.58 6.18z"/><filter id="g" width="100.6%" height="102.3%" x="-.1%" y="-.6%" filterUnits="objectBoundingBox"><feOffset dx="1" dy="1" in="SourceAlpha" result="shadowOffsetOuter1"/><feColorMatrix in="shadowOffsetOuter1" values="0 0 0 0 0 0 0 0 0 0 0 0 0 0 0 0 0 0 0.176913496 0"/></filter></defs><g fill="none" fill-rule="evenodd"><use fill="#000" filter="url(#a)" xlink:href="#b"/><use fill="#1A2C5B" xlink:href="#b"/><g transform="translate(16 39)"><g fill-rule="nonzero"><use fill="#000" filter="url(#c)" xlink:href="#d"/><use fill="#EFF0F4" xlink:href="#d"/></g><use fill="#000" filter="url(#e)" xlink:href="#f"/><use fill="#1A2C5B" xlink:href="#f"/></g><path fill="#D58537" d="M371.669 0c-25.07.041-20.308 38-20.308 38H450S427.886 0 371.669 0z"/><path fill="#D58537" d="M837.5 465.529c-.041 25.75-38 20.538-38 20.538V387.5s38 22.195 38 78.029z"/><path fill="#000" d="M617.616 70.246c89.842 91.004 126.9 128.133 150.199 153.171 24.804 23.155 31.916 47.648 32.185 48.37V424L413 38h153.656c.72.27 27.438 9.671 50.96 32.246z" opacity=".076"/><path fill="#F6993F" d="M645.74 29.13c97.577 98.652 137.826 138.901 163.13 166.044 26.94 25.101 28.838 51.653 29.13 52.435V469s-1.942-43.031-40.783-84.478L450.565 40.782C410.988.9 369 0 369 0h221.391c.782.292 29.801 4.658 55.348 29.13z"/><g transform="rotate(45 457.994 768.928)"><use fill="#000" filter="url(#g)" xlink:href="#h"/><use fill="#F7F9F9" xlink:href="#h"/></g></g></svg>