<svg height="268" viewBox="0 0 910 268" width="910" xmlns="http://www.w3.org/2000/svg"><g fill="none" fill-rule="evenodd"><path d="m164.259879 10.3080417-122.4104698 90.4667813c-.7713575.570079-1.3942781 1.336176-1.7932561 2.20499-.3989781.868815-.5731556 1.838348-.5007961 2.790478.0720734.952129.3903978 1.884855.9160764 2.684621.5253926.79948 1.2569954 1.464287 2.1055745 1.913389l52.614481 27.830586-79.3345695 113.094782c-3.872232 6.690868 2.5054105 11.028662 8.2915931 7.695782l154.4431155-123.07459c.735892-.586628 1.32249-1.357005 1.690294-2.220112.368089-.862823.517098-1.817234.429008-2.750532-.087804-.933012-.412134-1.843484-.934953-2.623847-.522818-.780364-1.242695-1.429193-2.075543-1.870305l-50.258363-26.6065423 45.270422-82.2365574c.480776-.8745492.724739-1.8761535.69957-2.8723082-.02574-.9961261-.319468-1.9843202-.844003-2.8337323-.524534-.8494406-1.27816-1.5580164-2.160773-2.03196947-.882614-.47392458-1.891929-.71205671-2.894951-.68286797-1.165187.03395365-2.316932.43129704-3.252457 1.12195434z" fill="#0366d6" transform="matrix(.99254615 -.12186934 .12186934 .99254615 -45.682717 11.91089)"/><path d="m47.2949219 143.148438c-18.5547803 0-33.7564512-5.761662-45.60546878-17.285157-.65104492-.651045-.97656249-1.432287-.97656249-2.34375 0-1.627612.87889746-3.238924 2.63671875-4.833984 1.75782128-1.59506 3.51561621-2.392578 5.2734375-2.392578.84635839 0 1.62760062.292966 2.34375002.878906 4.362001 3.710956 9.7818686 6.868477 16.2597656 9.472656 6.477897 2.60418 13.5904561 3.90625 21.3378906 3.90625 9.8958828 0 18.0338223-2.099588 24.4140625-6.298828 6.3802403-4.19924 9.5703125-10.139935 9.5703125-17.822265 0-3.90627-.4882763-7.2102734-1.4648437-9.9121099-.9765674-2.7018364-2.6367071-5.045563-4.9804688-7.03125s-4.9479023-3.6458266-7.8125-4.9804687c-2.8645976-1.3346421-6.7057051-2.7831953-11.5234375-4.3457032l-25.390625-8.59375c-10.0260918-3.3203291-17.6432031-7.5846093-22.85156248-12.7929687-5.20835937-5.2083594-7.81249999-12.3697461-7.81249999-21.484375 0-7.2265986 2.11586425-13.5904673 6.34765625-19.0917969 4.23179202-5.5013296 9.94462552-9.68423044 17.13867192-12.5488281 7.1940463-2.86459766 15.2180546-4.296875 24.0722656-4.296875 8.9844199 0 17.5455322 1.56248437 25.6835937 4.6875s14.257792 6.6406055 18.359375 10.546875c1.3020899 1.2369854 1.953125 2.6041592 1.953125 4.1015625 0 1.5625078-.6510351 2.9622334-1.953125 4.1992188-1.3020898 1.2369853-2.7669189 1.8554687-4.3945312 1.8554687-1.3671944 0-2.6367129-.4557246-3.8085938-1.3671875-3.580747-2.6692842-8.430959-5.240873-14.5507812-7.7148438-6.1198223-2.4739707-12.7929326-3.7109374-20.0195313-3.7109374-10.2865097 0-18.457001 2.0995883-24.5117187 6.2988281-6.0547178 4.1992397-9.0820313 9.7493144-9.0820313 16.6503906 0 5.7291953 1.8228985 10.2538896 5.46875 13.5742187 3.6458516 3.3203292 9.4726162 6.2825391 17.4804688 8.8867188l25.5859375 8.3984375c5.3385683 1.7578213 9.8469868 3.5644438 13.5253906 5.4199219 3.6784038 1.855478 7.1126143 4.1829287 10.3027344 6.9824218 3.1901201 2.7994932 5.5826743 6.1523243 7.1777343 10.0585938 1.5950601 3.9062695 2.3925782 8.4309639 2.3925782 13.574219 0 12.695376-4.5084185 22.428351-13.5253906 29.199219-9.0169722 6.770867-21.3703643 10.15625-37.0605469 10.15625zm107.7148441-.292969c-15.039138 0-22.558594-9.99339-22.558594-29.980469v-58.0078125h-12.890625c-3.776061 0-5.664063-1.5624844-5.664063-4.6875 0-3.1901201 1.888002-4.7851563 5.664063-4.7851563h12.890625l1.660156-28.90625c.065105-1.4322988.862623-2.8157485 2.392578-4.1503906 1.529956-1.3346421 2.978509-2.0019531 4.345703-2.0019531 1.562508 0 2.929682.537104 4.101563 1.6113281s1.757812 2.5553291 1.757812 4.4433594v29.0039062h18.75c3.645852 0 5.46875 1.6275879 5.46875 4.8828126 0 3.0599111-1.822898 4.5898437-5.46875 4.5898437h-18.75v56.8359375c0 7.487017 1.074208 12.662746 3.222657 15.527344 2.148448 2.864597 5.468727 4.296875 9.960937 4.296875h.878906l6.152344-.292969h.292969c1.88803 0 3.369135.569656 4.443359 1.708984 1.074224 1.139329 1.611328 2.457675 1.611328 3.955079 0 2.47397-1.041656 4.101558-3.125 4.882812-2.083343.781254-5.143209 1.171875-9.179687 1.171875-.651045 0-1.627598-.016276-2.929688-.048828-1.302089-.032552-2.311194-.048828-3.027343-.048828zm66.015625.195312c-10.416719 0-18.782521-2.425106-25.097657-7.27539-6.315135-4.850285-9.472656-11.800085-9.472656-20.84961 0-4.166687.455725-7.731105 1.367188-10.693359.911463-2.962255 2.473947-5.5338434 4.6875-7.7148439 2.213552-2.1810005 4.915348-3.9550713 8.105468-5.3222656s7.405573-2.4739541 12.646485-3.3203125c5.240911-.8463584 10.937469-1.4160142 17.089843-1.7089844 6.152375-.2929702 13.655555-.4394531 22.509766-.4394531v-12.3046875c0-7.2917031-2.083312-12.6952949-6.25-16.2109375-4.166687-3.5156426-9.863245-5.2734375-17.089844-5.2734375-6.119822 0-11.409483.6347593-15.86914 1.9042969-4.459658 1.2695376-9.326146 3.1738154-14.59961 5.7128906-.781254.390627-1.497392.5859375-2.148437.5859375-1.367194 0-2.587885-.5859316-3.662109-1.7578125-1.074225-1.1718809-1.611329-2.4413994-1.611329-3.8085937 0-1.4974034.618484-2.6367149 1.855469-3.4179688 9.700569-6.0547178 21.809823-9.0820312 36.328125-9.0820312 11.718809 0 20.833301 2.68552 27.34375 8.0566406s9.765625 13.5904394 9.765625 24.6582031v60.0585935c0 1.953135-.74869 3.499344-2.246094 4.638672-1.497403 1.139329-3.255198 1.708984-5.273437 1.708984-1.822926 0-3.38541-.520828-4.6875-1.5625-1.30209-1.041671-1.953125-2.539052-1.953125-4.492187v-12.988281c-6.575554 13.932361-17.154875 20.898437-31.738281 20.898437zm1.757812-9.667969c8.072957 0 15.104137-3.369106 21.09375-10.107421s8.984375-15.348255 8.984375-25.8300785v-3.2226563c-14.713615 0-25.699833.5533799-32.958984 1.6601563s-12.369777 3.043606-15.332032 5.8105465c-2.962254 2.766941-4.443359 6.982394-4.443359 12.646485 0 12.695376 7.552008 19.042968 22.65625 19.042968zm103.417969 9.472657c-15.039138 0-22.558594-9.99339-22.558594-29.980469v-58.0078125h-12.890625c-3.77606 0-5.664062-1.5624844-5.664062-4.6875 0-3.1901201 1.888002-4.7851563 5.664062-4.7851563h12.890625l1.660156-28.90625c.065105-1.4322988.862623-2.8157485 2.392578-4.1503906 1.529956-1.3346421 2.978509-2.0019531 4.345704-2.0019531 1.562507 0 2.929681.537104 4.101562 1.6113281s1.757813 2.5553291 1.757813 4.4433594v29.0039062h18.75c3.645851 0 5.46875 1.6275879 5.46875 4.8828126 0 3.0599111-1.822899 4.5898437-5.46875 4.5898437h-18.75v56.8359375c0 7.487017 1.074208 12.662746 3.222656 15.527344 2.148448 2.864597 5.468727 4.296875 9.960937 4.296875h.878907l6.152343-.292969h.292969c1.88803 0 3.369135.569656 4.443359 1.708984 1.074225 1.139329 1.611329 2.457675 1.611329 3.955079 0 2.47397-1.041657 4.101558-3.125 4.882812-2.083344.781254-5.143209 1.171875-9.179688 1.171875-.651045 0-1.627598-.016276-2.929687-.048828-1.30209-.032552-2.311195-.048828-3.027344-.048828zm74.804687.195312c-11.067763 0-19.710255-3.124968-25.927734-9.375-6.217479-6.250031-9.326172-15.820248-9.326172-28.710937v-53.9062502c0-2.1484483.699863-3.7923121 2.099609-4.9316407 1.399747-1.1393286 3.076163-1.7089843 5.029297-1.7089843 1.953135 0 3.645827.5696557 5.078125 1.7089843 1.432299 1.1393286 2.148438 2.7831924 2.148438 4.9316407v54.1015622c0 18.68499 7.910077 28.027344 23.730469 28.027344 8.072957 0 14.762343-2.587865 20.068359-7.763672s8.317054-12.516228 9.033203-22.021484v-52.3437502c0-2.0182393.748691-3.6295513 2.246094-4.8339844s3.190095-1.8066406 5.078125-1.8066406c1.953135 0 3.613274.5696557 4.980469 1.7089843 1.367194 1.1393286 2.050781 2.7831924 2.050781 4.9316407v83.2031252c0 2.148448-.716139 3.808588-2.148438 4.980469-1.432298 1.17188-3.12499 1.757812-5.078125 1.757812-1.88803 0-3.54817-.569656-4.980468-1.708984-1.432299-1.139329-2.148438-2.750641-2.148438-4.833985v-11.425781c-2.213553 6.38024-6.217419 11.311832-12.011719 14.794922-5.794299 3.48309-12.434858 5.224609-19.921875 5.224609zm112.011719-100.878906c6.184927 0 12.141899.7975181 17.871094 2.3925781 5.729195 1.5950601 10.221338 3.2714756 13.476562 5.0292969 2.01824 1.1718809 3.027344 2.766917 3.027344 4.7851562 0 1.2369854-.423173 2.3111934-1.269531 3.2226563-.846359.9114629-1.98567 1.3671875-3.417969 1.3671875-.651045 0-1.529942-.1627588-2.636719-.4882812-.390627-.130209-1.464835-.5533819-3.222656-1.2695313s-3.320306-1.3020811-4.6875-1.7578125-3.076161-.9765596-5.126953-1.5625-4.182932-1.0253892-6.396484-1.3183594c-2.213553-.2929702-4.459624-.4394531-6.738282-.4394531-16.992272 0-25.488281 5.240833-25.488281 15.7226563 0 4.2968964 1.139312 7.2916582 3.417969 8.984375 2.278657 1.6927167 7.389283 3.4830634 15.332031 5.3710937l17.871094 4.3945313c9.505256 2.3437617 16.194642 5.7616962 20.068359 10.2539062 3.873718 4.49221 5.810547 9.993457 5.810547 16.503906 0 9.830779-3.483038 17.220028-10.449219 22.167969-6.96618 4.947941-16.080672 7.454427-27.34375 7.519531-6.640658 0-13.281216-1.057932-19.921875-3.173828-6.640658-2.115896-11.783836-4.50845-15.429687-7.177734-1.757821-1.30209-2.636719-2.832023-2.636719-4.589844 0-1.30209.472001-2.425125 1.416016-3.369141.944015-.944015 2.132154-1.416015 3.564453-1.416015 1.30209 0 2.669264.423173 4.101562 1.269531 9.114629 5.664091 18.977812 8.496094 29.589844 8.496094 7.747435-.065105 13.834613-1.660141 18.261719-4.785156 4.427105-3.125016 6.640625-7.617159 6.640625-13.476563 0-4.557314-1.285795-8.121732-3.857422-10.693359-2.571627-2.571628-6.982391-4.6061127-13.232422-6.103516l-18.359375-4.3945312c-3.906269-.9765674-7.096342-1.839189-9.570312-2.5878907-2.473971-.7487016-5.029284-1.7903579-7.666016-3.125s-4.671217-2.815747-6.103516-4.4433593c-1.432298-1.6276124-2.620438-3.7109249-3.564453-6.25-.944015-2.5390752-1.416015-5.5012852-1.416015-8.8867188 0-4.7526279 1.074208-8.8704253 3.222656-12.3535156 2.148448-3.4830904 5.078106-6.2011621 8.789062-8.1542969s7.731099-3.3854121 12.060547-4.296875c4.329449-.9114629 9.000626-1.3671875 14.013672-1.3671875zm79.589844 98.828125c-1.88803 0-3.531894-.618483-4.931641-1.855469-1.399746-1.236985-2.099609-2.99478-2.099609-5.273437v-79.0039065h-14.257813c-3.580747 0-5.371093-1.5624844-5.371093-4.6875 0-3.1901201 1.790346-4.7851563 5.371093-4.7851563h14.257813v-13.0859374c0-4.9479415.439449-9.2936011 1.318359-13.0371094.878911-3.7435083 2.06705-6.7708218 3.564453-9.0820313 1.497404-2.31120945 3.36913-4.18293552 5.615235-5.61523435s4.573555-2.42512744 6.982422-2.97851563c2.408866-.55338818 5.143213-.83007812 8.203125-.83007812h11.621093c1.562508 0 2.783199.537104 3.66211 1.61132812.87891 1.07422413 1.318359 2.3274668 1.318359 3.75976563s-.455724 2.66926562-1.367187 3.7109375c-.911463 1.04167185-2.180982 1.56249995-3.808594 1.56249995h-8.300781c-4.036479 0-7.014965.6347593-8.935547 1.9042969-1.920583 1.2695376-3.336584 3.8248506-4.248047 7.6660157-.911463 3.841165-1.367188 9.7655849-1.367188 17.7734374v6.640625h18.261719c3.320329 0 4.980469 1.5950362 4.980469 4.7851563 0 1.5625078-.358069 2.7343711-1.074219 3.515625-.716149.7812539-2.01822 1.171875-3.90625 1.171875h-18.261719v79.0039065c0 2.213552-.716138 3.955072-2.148437 5.224609-1.432299 1.269538-3.12499 1.904297-5.078125 1.904297zm79.882812 32.128906c-1.562507 3.515643-4.036441 5.273438-7.421875 5.273438-1.757821 0-3.271478-.55338-4.541015-1.660156-1.269538-1.106777-1.904297-2.506502-1.904297-4.199219 0-.911463.260414-1.985671.78125-3.222657l15.917969-34.960937-37.207032-79.9804688c-.455731-.9765673-.683593-2.0507753-.683593-3.2226562 0-1.9531348.716138-3.5969985 2.148437-4.9316406s3.092439-2.0019532 4.980469-2.0019532c2.799493 0 4.850254 1.4322774 6.152344 4.296875l31.933593 69.6289068 31.542969-69.1406255c1.432299-2.9948066 3.515611-4.4921875 6.25-4.4921875 1.822926 0 3.46679.667311 4.931641 2.0019531s2.197265 2.9459541 2.197265 4.8339844c0 .7812539-.130207 1.5299443-.390625 2.2460937z" fill="#1b1f23" transform="translate(182 44)"/></g></svg>