<svg height="980" viewBox="0 0 980 980" width="980" xmlns="http://www.w3.org/2000/svg"><path d="m207.965121 80h565.069758c37.889546 0 51.629212 3.9450885 65.481063 11.3531399 13.851852 7.4080514 24.722867 18.2790661 32.130918 32.1309181 7.408052 13.851851 11.35314 27.591517 11.35314 65.481063v565.069758c0 37.889546-3.945088 51.629212-11.35314 65.481063-7.408051 13.851852-18.279066 24.722867-32.130918 32.130918-13.851851 7.408052-27.591517 11.35314-65.481063 11.35314h-565.069758c-37.889546 0-51.629212-3.945088-65.481063-11.35314-13.851852-7.408051-24.722867-18.279066-32.130918-32.130918-7.408052-13.851851-11.35314-27.591517-11.35314-65.481063v-565.069758c0-37.889546 3.945088-51.629212 11.35314-65.481063 7.408051-13.851852 18.279066-24.7228667 32.130918-32.1309181 13.851851-7.4080514 27.591517-11.3531399 65.481063-11.3531399zm286.284879 661.75c37.000185 0 69.874856-6.124939 98.625-18.375s50.999921-29.499889 66.75-51.75 23.625-47.624857 23.625-76.125c0-30.00015-8.124919-53.874911-24.375-71.625s-36.124883-30.874957-59.625-39.375-55.499797-17.74995-96-27.75l-19.5-4.5c-28.00014-7.000035-50.874911-14.249963-68.625-21.75s-32.124945-17.624936-43.125-30.375-16.5-29.374897-16.5-49.875c0-34.00017 12.499875-60.499905 37.5-79.5s59.749777-28.5 104.25-28.5c29.500147 0 55.124891 4.249957 76.875 12.75s46.124865 23.74989 73.125 45.75c6.500032 5.000025 12.249975 7.5 17.25 7.5 4.00002 0 7.624984-1.99998 10.875-6s4.875-8.749973 4.875-14.25c0-8.00004-3.249968-15.249968-9.75-21.75-20.0001-21.000105-45.249847-37.124944-75.75-48.375s-62.999828-16.875-97.5-16.875c-37.000185 0-69.749857 6.249937-98.25 18.75s-50.624921 30.124886-66.375 52.875-23.625 48.874852-23.625 78.375c0 32.500162 8.749912 58.374904 26.25 77.625s38.874874 33.624953 64.125 43.125 58.374795 18.749955 99.375 27.75c31.000155 7.000035 55.749908 13.874966 74.25 20.625s33.74994 16.12494 45.75 28.125 18 27.749902 18 47.25c0 33.500167-12.374876 59.374909-37.125 77.625s-59.874773 27.375-105.375 27.375c-62.500313 0-117.249765-19.499805-164.25-58.5-6.500032-5.000025-12.249975-7.5-17.25-7.5-4.00002 0-7.624984 1.99998-10.875 6s-4.875 8.749973-4.875 14.25c0 9.000045 3.249968 16.249973 9.75 21.75 19.500097 20.0001 46.374829 35.874941 80.625 47.625s69.874815 17.625 106.875 17.625z"/></svg>