<svg viewBox="0 0 448 512" xmlns="http://www.w3.org/2000/svg"><path d="m448 73.143v45.714c0 40.286-100.333 73.143-224 73.143s-224-32.857-224-73.143v-45.714c0-40.286 100.333-73.143 224-73.143s224 32.857 224 73.143zm0 102.857v102.857c0 40.286-100.333 73.143-224 73.143s-224-32.857-224-73.143v-102.857c48.125 33.143 136.208 48.572 224 48.572s175.874-15.429 224-48.572zm0 160v102.857c0 40.286-100.333 73.143-224 73.143s-224-32.857-224-73.143v-102.857c48.125 33.143 136.208 48.572 224 48.572s175.874-15.429 224-48.572z"/></svg>