<svg viewBox="0 0 496 512" xmlns="http://www.w3.org/2000/svg"><path d="m336.5 160c-14.5-89.3-48.7-152-88.5-152s-74 62.7-88.5 152zm-184.5 96c0 22.2 1.2 43.5 3.3 64h185.3c2.1-20.5 3.3-41.8 3.3-64s-1.2-43.5-3.3-64h-185.3c-2.1 20.5-3.3 41.8-3.3 64zm324.7-96c-28.6-67.9-86.5-120.4-158-141.6 24.4 33.8 41.2 84.7 50 141.6zm-299.5-141.6c-71.4 21.2-129.4 73.7-157.9 141.6h108c8.7-56.9 25.5-107.8 49.9-141.6zm310.2 173.6h-114.7c2.1 21 3.3 42.5 3.3 64s-1.2 43-3.3 64h114.6c5.5-20.5 8.6-41.8 8.6-64s-3.1-43.5-8.5-64zm-367.4 64c0-21.5 1.2-43 3.3-64h-114.7c-5.4 20.5-8.6 41.8-8.6 64s3.2 43.5 8.6 64h114.6c-2-21-3.2-42.5-3.2-64zm39.5 96c14.5 89.3 48.7 152 88.5 152s74-62.7 88.5-152zm159.3 141.6c71.4-21.2 129.4-73.7 158-141.6h-108c-8.8 56.9-25.6 107.8-50 141.6zm-299.5-141.6c28.6 67.9 86.5 120.4 158 141.6-24.4-33.8-41.2-84.7-50-141.6z"/></svg>