<svg height="980" viewBox="0 0 980 980" width="980" xmlns="http://www.w3.org/2000/svg"><path d="m207.965121 99h565.069758c37.889546 0 51.629212 3.945088 65.481063 11.35314 13.851852 7.408051 24.722867 18.279066 32.130918 32.130918 7.408052 13.851851 11.35314 27.591517 11.35314 65.481063v565.069758c0 37.889546-3.945088 51.629212-11.35314 65.481063-7.408051 13.851852-18.279066 24.722867-32.130918 32.130918-13.851851 7.408052-27.591517 11.35314-65.481063 11.35314h-565.069758c-37.889546 0-51.629212-3.945088-65.481063-11.35314-13.851852-7.408051-24.722867-18.279066-32.130918-32.130918-7.408052-13.851851-11.35314-27.591517-11.35314-65.481063v-565.069758c0-37.889546 3.945088-51.629212 11.35314-65.481063 7.408051-13.851852 18.279066-24.722867 32.130918-32.130918 13.851851-7.408052 27.591517-11.35314 65.481063-11.35314zm384.769353 126.282417-222.073101 210.584528c-1.399369 1.327001-2.454553 3.008897-3.037758 4.840941-.583205 1.832045-.693209 3.810041-.315581 5.692871.377057 1.882899 1.240686 3.666716 2.485459 5.134304 1.244133 1.467089 2.866707 2.614814 4.669831 3.303293l111.795482 42.657776-130.583731 245.195156c-6.086812 14.304835 7.700672 21.40048 18.428885 13.329499l277.996952-283.524617c1.324555-1.351343 2.306218-3.032879 2.828621-4.845892.523043-1.812514.586535-3.754155.182135-5.59554-.403759-1.840885-1.27392-3.578805-2.508233-5.008365-1.234313-1.429561-2.829577-2.548265-4.599358-3.224653l-106.794638-40.791905 70.17797-175.249539c.745004-1.863541.986388-3.922657.692131-5.904934-.295391-1.982079-1.123533-3.882643-2.378186-5.449612-1.25466-1.567026-2.931896-2.796721-4.809015-3.526466-1.877112-.729688-3.949255-.957653-5.943355-.653555-2.316487.353354-4.517131 1.428784-6.21451 3.03671z"/></svg>