<svg height="815" viewBox="0 0 815 815" width="815" xmlns="http://www.w3.org/2000/svg" xmlns:xlink="http://www.w3.org/1999/xlink"><defs><rect id="a" height="783" rx="85" width="783"/><filter id="b" height="106.9%" width="106.9%" x="-3.4%" y="-2.7%"><feMorphology in="SourceAlpha" operator="dilate" radius="2" result="shadowSpreadOuter1"/><feOffset dy="6" in="shadowSpreadOuter1" result="shadowOffsetOuter1"/><feGaussianBlur in="shadowOffsetOuter1" result="shadowBlurOuter1" stdDeviation="6"/><feColorMatrix in="shadowBlurOuter1" values="0 0 0 0 0.101960784   0 0 0 0 0.17254902   0 0 0 0 0.356862745  0 0 0 0.5 0"/></filter><path id="c" d="m395.25 661.75c-37.000185 0-72.624829-5.874941-106.875-17.625s-61.124903-27.6249-80.625-47.625c-6.500032-5.500027-9.75-12.749955-9.75-21.75 0-5.500027 1.624984-10.24998 4.875-14.25s6.87498-6 10.875-6c5.000025 0 10.749968 2.499975 17.25 7.5 47.000235 39.000195 101.749687 58.5 164.25 58.5 45.500227 0 80.624876-9.124909 105.375-27.375s37.125-44.124833 37.125-77.625c0-19.500098-5.99994-35.24994-18-47.25s-27.249908-21.374966-45.75-28.125-43.249845-13.624965-74.25-20.625c-41.000205-9.000045-74.124874-18.249953-99.375-27.75s-46.624912-23.874904-64.125-43.125-26.25-45.124838-26.25-77.625c0-29.500148 7.874921-55.624886 23.625-78.375s37.874857-40.374937 66.375-52.875 61.249815-18.75 98.25-18.75c34.500172 0 66.999847 5.624944 97.5 16.875s55.7499 27.374895 75.75 48.375c6.500032 6.500032 9.75 13.74996 9.75 21.75 0 5.500027-1.624984 10.24998-4.875 14.25s-6.87498 6-10.875 6c-5.000025 0-10.749968-2.499975-17.25-7.5-27.000135-22.00011-51.374891-37.249957-73.125-45.75s-47.374853-12.75-76.875-12.75c-44.500223 0-79.249875 9.499905-104.25 28.5s-37.5 45.49983-37.5 79.5c0 20.500103 5.499945 37.124936 16.5 49.875s25.374911 22.874963 43.125 30.375 40.62486 14.749965 68.625 21.75l19.5 4.5c40.500203 10.00005 72.499883 19.249957 96 27.75s43.374919 21.624911 59.625 39.375 24.375 41.62485 24.375 71.625c0 28.500143-7.874921 53.874889-23.625 76.125s-37.999856 39.499939-66.75 51.75-61.624815 18.375-98.625 18.375z"/><filter id="d" height="102.6%" width="103.6%" x="-1.8%" y="-.9%"><feOffset dy="2" in="SourceAlpha" result="shadowOffsetOuter1"/><feGaussianBlur in="shadowOffsetOuter1" result="shadowBlurOuter1" stdDeviation="2"/><feColorMatrix in="shadowBlurOuter1" values="0 0 0 0 0.101960784   0 0 0 0 0.17254902   0 0 0 0 0.356862745  0 0 0 0.5 0"/></filter></defs><g fill="none" fill-rule="evenodd" transform="translate(16 10)"><g fill-rule="nonzero"><use fill="#000" filter="url(#b)" xlink:href="#a"/><use fill="#eff0f4" xlink:href="#a"/></g><use fill="#000" filter="url(#d)" xlink:href="#c"/><use fill="#1a2c5b" xlink:href="#c"/></g></svg>